<svg width="280" height="203" viewBox="0 0 280 203" fill="none" xmlns="http://www.w3.org/2000/svg">
<path d="M81.0121 17.9092H31.0935V90.2665H81.0121V17.9092Z" fill="#E0E0E0"/>
<path d="M78.5105 17.9092H28.5919V90.2665H78.5105V17.9092Z" fill="#F5F5F5"/>
<path d="M72.3129 25.7446H34.7951V82.4308H72.3129V25.7446Z" fill="white"/>
<path d="M72.313 82.431C72.313 82.431 72.313 82.3314 72.313 82.1544C72.313 81.9773 72.313 81.7006 72.313 81.3465C72.313 80.6381 72.313 79.5923 72.313 78.2421C72.313 75.5251 72.313 71.563 72.2798 66.5607C72.2798 56.567 72.2466 42.4121 72.219 25.7449L72.3462 25.8721H34.834L34.9668 25.7338C34.9668 47.1156 34.9668 66.8318 34.9668 82.42L34.8561 82.3093L62.1644 82.3646H69.7067H71.6877C72.136 82.3646 72.3739 82.3646 72.3739 82.3646H71.7099H69.751L62.2308 82.3923L34.8561 82.4476H34.7455V82.3425C34.7455 66.7544 34.7455 47.0381 34.7455 25.6563V25.6287H34.8893H72.4016H72.5233V25.7504C72.5233 42.4508 72.479 56.6334 72.4624 66.6492C72.4624 71.6295 72.4624 75.586 72.4292 78.2698C72.4292 79.6144 72.4292 80.6492 72.4292 81.3575C72.4292 81.7006 72.4292 81.9607 72.4292 82.1433C72.4292 82.3259 72.313 82.431 72.313 82.431Z" fill="#E0E0E0"/>
<path d="M78.6543 17.9092C78.3961 18.3644 78.0979 18.7959 77.7634 19.1985C77.1824 19.9787 76.3634 21.0301 75.4227 22.17C74.482 23.31 73.6022 24.3226 72.9547 25.042C72.6201 25.4436 72.2497 25.8141 71.848 26.1487C72.1329 25.7084 72.453 25.292 72.8053 24.9036L75.2069 21.9874L77.6085 19.0712C77.9229 18.6544 78.2729 18.2656 78.6543 17.9092Z" fill="#E0E0E0"/>
<path d="M72.4901 82.2483C74.3593 85.2126 76.5551 87.9578 79.0364 90.4325L72.4901 82.2483Z" fill="white"/>
<path d="M79.0476 90.4325C78.6335 90.1251 78.2515 89.7765 77.9077 89.3922C77.0366 88.5142 76.2128 87.5907 75.4397 86.6254C74.6622 85.6571 73.9363 84.6486 73.265 83.604C72.9659 83.1846 72.71 82.7359 72.5013 82.2649C72.8401 82.6523 73.149 83.0648 73.4255 83.4989C73.9788 84.2681 74.748 85.325 75.6389 86.4538C76.5298 87.5827 77.4041 88.5732 78.0349 89.276C78.3999 89.6366 78.7383 90.0231 79.0476 90.4325Z" fill="#E0E0E0"/>
<path d="M28.5865 90.2111L35.1217 82.1431L28.5865 90.2111Z" fill="white"/>
<path d="M35.1217 82.1431C34.142 83.5703 33.0873 84.9445 31.962 86.2601C30.1526 88.4735 28.6419 90.2553 28.5865 90.2111C29.5663 88.7807 30.6229 87.4044 31.7518 86.0885C32.8067 84.7164 33.9315 83.3995 35.1217 82.1431Z" fill="#E0E0E0"/>
<path d="M28.5919 17.9092C29.722 19.1111 30.7825 20.3767 31.7682 21.6997C32.8255 22.9682 33.8137 24.2926 34.7287 25.6673C33.5973 24.4615 32.5332 23.1942 31.5413 21.8712C30.4866 20.6054 29.502 19.2827 28.5919 17.9092Z" fill="#E0E0E0"/>
<path d="M60.6208 37.2546H48.0595V72.9242H60.6208V37.2546Z" fill="#E0E0E0"/>
<path d="M52.442 183.27C52.531 178.475 54.3804 173.88 57.6381 170.36C59.2096 176.84 52.442 183.27 52.442 183.27Z" fill="#EBEBEB"/>
<path d="M59.9897 179.617C64.4218 177.784 69.3739 177.646 73.9012 179.23C68.6166 183.253 59.9897 179.617 59.9897 179.617Z" fill="#EBEBEB"/>
<path d="M60.8697 175.417C60.1515 171.703 60.8252 167.854 62.7622 164.605C65.0199 169.347 60.8697 175.417 60.8697 175.417Z" fill="#EBEBEB"/>
<path d="M31.6689 160.272C42.6974 163.21 48.6183 172.822 48.6183 172.822C39.1891 172.822 31.6689 160.272 31.6689 160.272Z" fill="#EBEBEB"/>
<path d="M49.2875 164.793C48.7341 152.901 60.3547 139.449 60.3547 139.449C58.6005 154.207 49.2875 164.793 49.2875 164.793Z" fill="#EBEBEB"/>
<path d="M49.249 130.933C49.4795 136.888 48.0319 142.788 45.0711 147.96C43.411 140.312 49.249 130.933 49.249 130.933Z" fill="#EBEBEB"/>
<path d="M44.7504 155.115C36.0571 154.185 31.3259 145.536 31.3259 145.536C41.8397 148.474 44.7504 155.115 44.7504 155.115Z" fill="#EBEBEB"/>
<path d="M26.0079 191.437C30.0863 188.912 34.951 187.974 39.6759 188.803C35.0775 193.634 26.0079 191.437 26.0079 191.437Z" fill="#EBEBEB"/>
<path d="M48.5243 195.338C47.4172 198.153 45.3488 200.484 42.6864 201.918C43.0572 197.906 48.5243 195.338 48.5243 195.338Z" fill="#EBEBEB"/>
<path d="M47.4061 194.06C42.4646 197.104 37.0085 195.914 37.0085 195.914C40.3563 192.428 47.4061 194.06 47.4061 194.06Z" fill="#EBEBEB"/>
<path d="M51.85 210.063C51.8429 210.004 51.8429 209.945 51.85 209.886C51.85 209.748 51.85 209.576 51.85 209.366C51.85 208.879 51.85 208.215 51.85 207.374C51.85 206.533 51.85 205.454 51.85 204.225C51.85 202.997 51.85 201.597 51.7615 200.053C51.6895 196.96 51.4682 193.285 51.1528 189.213C50.8374 185.14 50.3061 180.674 49.6255 176.004C48.2034 166.669 46.3219 158.324 44.8223 152.348C44.0587 149.349 43.4223 146.93 42.952 145.265C42.7362 144.457 42.5591 143.815 42.4318 143.345L42.3101 142.841C42.2917 142.784 42.2805 142.724 42.2769 142.664C42.3052 142.717 42.3275 142.772 42.3433 142.83L42.5093 143.323C42.6532 143.787 42.8524 144.429 43.0959 145.226C43.6105 146.886 44.2911 149.288 45.088 152.281C47.1472 160.083 48.7765 167.991 49.9686 175.971C50.6492 180.647 51.1306 185.123 51.4682 189.202C51.8057 193.28 51.9551 196.949 52.0216 200.07C52.0714 201.613 52.0548 203.013 52.0548 204.247C52.0548 205.481 52.0548 206.533 52.005 207.396C51.9551 208.259 51.9496 208.901 51.933 209.394C51.933 209.598 51.933 209.77 51.9053 209.908C51.8947 209.962 51.8761 210.015 51.85 210.063Z" fill="#E0E0E0"/>
<path d="M35.8966 184.897C35.9575 184.808 39.4713 187.11 43.7433 190.037C48.0152 192.964 51.4295 195.416 51.3686 195.504C51.3077 195.593 47.7994 193.291 43.5219 190.358C39.2445 187.425 35.8358 184.996 35.8966 184.897Z" fill="#E0E0E0"/>
<path d="M51.3684 186.164C51.528 185.944 51.7138 185.746 51.9217 185.572L53.4877 184.066L58.7115 179.164L63.9352 174.266L65.5178 172.783C65.7015 172.588 65.9077 172.415 66.132 172.269C65.9934 172.498 65.824 172.706 65.6285 172.889C65.2854 173.27 64.7707 173.807 64.1289 174.466C62.8395 175.772 61.0245 177.537 58.9771 179.446C56.9296 181.355 55.0482 183.054 53.6704 184.266C52.9842 184.869 52.4198 185.372 52.0103 185.682C51.8205 185.873 51.6043 186.035 51.3684 186.164Z" fill="#E0E0E0"/>
<path d="M24.7352 179.263C24.7352 179.263 33.7217 179.092 37.5178 186.164C34.997 186.088 32.5287 185.425 30.3095 184.227C28.0903 183.029 26.1815 181.329 24.7352 179.263Z" fill="#EBEBEB"/>
<path d="M37.0034 175.656C37.0034 175.656 44.3188 180.874 43.1623 188.814C41.1813 187.253 39.5927 185.25 38.5234 182.965C37.4541 180.68 36.9335 178.177 37.0034 175.656Z" fill="#EBEBEB"/>
<path d="M75.5336 162.801C75.5336 162.801 72.6451 172.855 63.4759 174.665C64.4224 171.885 66.0055 169.364 68.099 167.304C70.1925 165.244 72.7384 163.702 75.5336 162.801Z" fill="#EBEBEB"/>
<path d="M33.0134 125.416C33.0134 125.416 44.479 132.892 43.2063 145.055C40.0949 142.802 37.5531 139.853 35.7834 136.443C34.0137 133.033 33.0652 129.257 33.0134 125.416Z" fill="#EBEBEB"/>
<path d="M71.1623 191.913C70.9345 192.137 70.6841 192.338 70.4152 192.511C69.9228 192.87 69.2145 193.402 68.3623 194.082C63.8852 197.617 60.0417 201.887 56.9963 206.71C56.4152 207.634 55.9615 208.37 55.6571 208.923C55.5119 209.207 55.3396 209.476 55.1425 209.726C55.2385 209.422 55.3665 209.129 55.5243 208.851C55.7844 208.298 56.205 207.512 56.7639 206.566C59.694 201.617 63.5692 197.292 68.1686 193.839C69.054 193.18 69.7844 192.677 70.3101 192.356C70.5782 192.179 70.8638 192.031 71.1623 191.913Z" fill="#E0E0E0"/>
<path d="M61.1852 199.384C60.3561 194.659 61.2936 189.794 63.8192 185.716C65.0532 194.237 61.1852 199.384 61.1852 199.384Z" fill="#EBEBEB"/>
<path d="M68.8986 195.178C71.9302 193.451 75.4913 192.899 78.9033 193.629C73.3697 196.561 68.8986 195.178 68.8986 195.178Z" fill="#EBEBEB"/>
<path d="M47.0858 153.001C52.9182 153.759 68.7609 151.269 83.9064 148.723C84.7419 148.585 87.4313 147.722 88.2613 147.589L116.079 145.254L115.713 166.126L89.534 159.254C89.534 159.254 80.2376 162.945 72.3522 162.945C65.4131 162.945 50.5388 161.733 50.5388 161.733L47.0858 153.001Z" fill="#FFBF9D"/>
<path d="M221.455 164.306C218.87 164.467 216.279 164.079 213.855 163.167C211.43 162.256 209.227 160.841 207.388 159.016L214.853 156.1" fill="#263238"/>
<path d="M235.731 144.003C236.985 146.261 237.41 148.886 236.932 151.424C236.456 153.949 235.568 156.38 234.304 158.617C233.695 159.922 232.848 161.102 231.808 162.098C229.821 163.808 226.523 165.551 223.917 165.816C221.809 166.027 216.491 165.429 214.51 164.616C212.717 163.869 211.223 160.084 210.714 158.208L230.198 140.008C231.34 140.27 232.419 140.758 233.369 141.445C234.32 142.131 235.123 143.001 235.731 144.003Z" fill="#263238"/>
<path d="M232.87 141.12L233.783 145.254C228.25 143.195 215.849 143.073 210.066 142.005C212.23 140.379 218.87 136.544 221.576 136.627C224.282 136.71 233.13 136.151 232.87 141.12Z" fill="#263238"/>
<path d="M223.939 139.095C228.112 139.194 233.319 141.757 233.037 145.923L230.978 155.607C230.658 157.09 229.873 158.433 228.738 159.439C227.602 160.445 226.175 161.063 224.664 161.202C224.509 161.202 224.703 161.202 224.581 161.202L199.68 160.062L185.11 153.421L196.902 146.576L203.46 146.316C203.46 146.316 204.14 140.965 211.035 139.598C214.422 138.99 219.308 138.979 223.939 139.095Z" fill="#FFBF9D"/>
<path d="M218.367 142.293C218.135 142.3 217.916 142.397 217.755 142.564C217.594 142.73 217.504 142.953 217.504 143.184C217.498 143.298 217.516 143.411 217.556 143.517C217.595 143.624 217.656 143.721 217.734 143.804C217.812 143.887 217.905 143.953 218.009 143.998C218.114 144.044 218.226 144.068 218.339 144.07C218.572 144.064 218.793 143.967 218.955 143.801C219.117 143.634 219.208 143.411 219.208 143.179C219.212 143.065 219.193 142.952 219.152 142.846C219.112 142.74 219.051 142.642 218.973 142.56C218.894 142.478 218.801 142.412 218.697 142.366C218.593 142.32 218.481 142.295 218.367 142.293Z" fill="#263238"/>
<path d="M221.267 140.246C221.15 140.356 221.676 141.015 221.709 141.972C221.743 142.93 221.294 143.632 221.416 143.749C221.538 143.865 221.671 143.677 221.886 143.361C222.157 142.936 222.289 142.437 222.263 141.933C222.25 141.436 222.075 140.956 221.765 140.567C221.527 140.279 221.344 140.174 221.267 140.246Z" fill="#263238"/>
<path d="M218.694 150.317C218.462 150.323 218.241 150.419 218.08 150.586C217.918 150.753 217.829 150.976 217.83 151.208C217.826 151.321 217.844 151.434 217.884 151.54C217.924 151.646 217.984 151.744 218.062 151.826C218.14 151.909 218.233 151.975 218.337 152.02C218.441 152.066 218.552 152.091 218.666 152.093C218.897 152.086 219.117 151.989 219.278 151.823C219.439 151.656 219.529 151.434 219.529 151.202C219.534 151.089 219.517 150.975 219.477 150.869C219.438 150.762 219.377 150.665 219.299 150.582C219.221 150.5 219.127 150.434 219.023 150.388C218.919 150.342 218.807 150.318 218.694 150.317Z" fill="#263238"/>
<path d="M221.632 149.332C221.521 149.448 222.041 150.101 222.074 151.058C222.108 152.016 221.659 152.719 221.781 152.835C221.903 152.951 222.041 152.763 222.251 152.447C222.522 152.022 222.655 151.524 222.633 151.02C222.614 150.522 222.438 150.044 222.13 149.653C221.897 149.365 221.681 149.277 221.632 149.332Z" fill="#263238"/>
<path d="M213.995 146.643C214.133 146.132 214.207 145.606 214.217 145.077C214.217 144.833 214.272 144.601 214.438 144.551C214.69 144.519 214.946 144.568 215.168 144.689L217.055 145.337C219.745 146.239 221.947 146.886 221.986 146.775C222.025 146.665 219.872 145.846 217.183 144.944L215.285 144.324C214.984 144.182 214.643 144.151 214.322 144.235C214.237 144.274 214.161 144.331 214.102 144.403C214.042 144.475 214 144.56 213.979 144.65C213.947 144.786 213.932 144.926 213.934 145.065C213.889 145.592 213.909 146.121 213.995 146.643Z" fill="#263238"/>
<path d="M206.26 155.48C206.26 155.48 201.407 153.416 201.789 146.449L203.421 146.383C203.506 149.619 204.489 152.769 206.26 155.48Z" fill="#FF9A6C"/>
<path d="M225.101 149.492C224.841 149.598 225.002 150.549 224.913 151.673C224.825 152.796 224.548 153.726 224.786 153.886C224.902 153.947 225.14 153.781 225.378 153.405C225.667 152.905 225.838 152.347 225.879 151.772C225.92 151.197 225.83 150.62 225.616 150.084C225.433 149.647 225.218 149.448 225.101 149.492Z" fill="#263238"/>
<path d="M224.205 140.44C223.995 140.617 224.244 141.264 224.282 142.055C224.321 142.847 224.194 143.527 224.426 143.671C224.542 143.738 224.753 143.621 224.952 143.323C225.187 142.92 225.293 142.454 225.256 141.989C225.23 141.524 225.06 141.08 224.769 140.716C224.537 140.445 224.31 140.362 224.205 140.44Z" fill="#263238"/>
<path d="M230.347 140.727C230.866 140.952 231.313 141.316 231.637 141.779C231.961 142.242 232.151 142.786 232.184 143.35C232.229 144.483 231.951 145.606 231.382 146.587C229.169 150.815 223.48 153.167 221.173 157.35C220.619 158.374 221.217 159.658 220.448 160.543C219.679 161.428 218.411 162.037 217.321 161.606C218.069 162.164 218.895 162.609 219.773 162.928C220.212 163.082 220.679 163.142 221.144 163.104C221.608 163.066 222.059 162.931 222.467 162.707C223.065 162.325 223.508 161.683 224.188 161.484C224.869 161.285 225.422 161.523 226.042 161.484C226.67 161.386 227.267 161.144 227.785 160.776C230.606 159.124 232.924 156.737 234.492 153.87C235.486 151.978 235.946 149.85 235.82 147.716C235.685 145.577 234.788 143.556 233.291 142.022C232.4 141.142 231.482 140.218 230.347 140.738" fill="#263238"/>
<path d="M219.584 160.477C219.783 160.537 221.244 164.107 217.371 164.306C213.636 164.505 214.222 160.703 214.327 160.692C214.433 160.681 219.584 160.477 219.584 160.477Z" fill="#FFBF9D"/>
<path d="M215.811 161.755C215.811 161.755 215.766 161.821 215.722 161.932C215.659 162.088 215.659 162.263 215.722 162.419C215.886 162.653 216.109 162.839 216.369 162.957C216.629 163.076 216.916 163.123 217.2 163.094C217.52 163.086 217.836 163.009 218.124 162.867C218.238 162.825 218.341 162.756 218.423 162.667C218.506 162.577 218.566 162.47 218.6 162.353C218.616 162.276 218.605 162.197 218.568 162.128C218.532 162.059 218.472 162.006 218.4 161.976C218.295 161.932 218.223 161.976 218.212 161.937C218.201 161.899 218.273 161.854 218.428 161.877C218.523 161.892 218.61 161.941 218.672 162.015C218.753 162.114 218.792 162.241 218.782 162.369C218.758 162.525 218.694 162.671 218.597 162.795C218.501 162.919 218.374 163.016 218.229 163.077C217.913 163.25 217.56 163.345 217.2 163.354C216.868 163.389 216.533 163.326 216.238 163.171C215.943 163.017 215.7 162.778 215.54 162.485C215.505 162.386 215.493 162.281 215.504 162.176C215.516 162.072 215.551 161.971 215.606 161.882C215.733 161.788 215.811 161.755 215.811 161.755Z" fill="#FF9A6C"/>
<path d="M221.56 161.882C221.594 161.804 221.633 161.728 221.676 161.655C221.765 161.506 221.875 161.279 222.052 161.008C222.56 160.251 223.148 159.552 223.807 158.922C224.79 157.997 225.827 157.131 226.911 156.326C228.238 155.354 229.48 154.271 230.624 153.089C231.193 152.46 231.692 151.772 232.112 151.036C232.498 150.347 232.797 149.613 233.003 148.851C233.36 147.556 233.471 146.207 233.33 144.872C233.238 143.972 233.028 143.088 232.705 142.243C232.599 141.939 232.483 141.718 232.417 141.563C232.378 141.485 232.346 141.403 232.323 141.319C232.371 141.392 232.414 141.467 232.45 141.546C232.569 141.764 232.675 141.99 232.765 142.221C233.115 143.065 233.346 143.953 233.452 144.861C233.612 146.21 233.51 147.578 233.153 148.889C232.948 149.661 232.649 150.405 232.262 151.103C231.834 151.85 231.327 152.549 230.751 153.189C229.598 154.375 228.344 155.46 227.005 156.432C225.924 157.23 224.884 158.084 223.89 158.988C223.231 159.609 222.634 160.293 222.108 161.03C221.925 161.296 221.803 161.511 221.709 161.655C221.666 161.735 221.616 161.811 221.56 161.882Z" fill="#455A64"/>
<path d="M220.464 160.986C219.451 161.085 218.372 161.179 217.448 160.742C216.524 160.305 215.86 159.143 216.342 158.235C216.723 157.494 217.642 157.239 218.461 157.084C220.829 156.636 223.225 156.376 225.588 155.906L220.464 160.986Z" fill="#263238"/>
<path d="M232.162 141.568C232.162 141.568 232.24 141.895 232.279 142.492C232.331 143.338 232.212 144.184 231.93 144.983C231.742 145.535 231.495 146.065 231.194 146.565C230.841 147.141 230.455 147.695 230.037 148.225C229.091 149.438 228.002 150.532 226.795 151.485C226.147 151.988 225.478 152.436 224.863 152.918C224.261 153.373 223.715 153.899 223.237 154.484C222.455 155.484 221.791 156.57 221.256 157.721C220.785 158.7 220.464 159.514 220.243 160.073C220.143 160.338 220.06 160.554 219.994 160.72C219.965 160.796 219.94 160.873 219.922 160.953C219.922 160.953 219.966 160.881 220.038 160.737L220.32 160.106C220.564 159.553 220.907 158.75 221.388 157.787C221.936 156.657 222.606 155.59 223.386 154.606C223.86 154.038 224.396 153.525 224.985 153.078C225.599 152.608 226.263 152.16 226.922 151.651C228.145 150.684 229.244 149.568 230.192 148.33C230.61 147.801 230.995 147.247 231.343 146.67C231.644 146.158 231.887 145.615 232.068 145.049C232.343 144.23 232.443 143.363 232.362 142.504C232.336 142.272 232.296 142.043 232.24 141.817C232.223 141.732 232.197 141.648 232.162 141.568Z" fill="#455A64"/>
<path d="M222.778 160.997C222.696 161.102 222.625 161.215 222.567 161.334L222.053 162.303L221.881 162.629C221.812 162.757 221.772 162.899 221.765 163.044C221.755 163.133 221.779 163.222 221.831 163.293C221.861 163.333 221.899 163.366 221.943 163.389C221.987 163.412 222.036 163.424 222.086 163.426C222.258 163.411 222.421 163.341 222.551 163.227L224.261 162.059L224.122 161.921C223.609 162.671 223.376 163.578 223.464 164.483C223.472 164.598 223.496 164.712 223.536 164.821C223.557 164.884 223.591 164.942 223.637 164.991C223.683 165.04 223.739 165.078 223.801 165.103C223.866 165.121 223.933 165.123 223.999 165.11C224.064 165.096 224.125 165.067 224.178 165.025C224.258 164.959 224.332 164.885 224.399 164.804C224.856 164.291 225.379 163.841 225.954 163.465C226.495 163.132 227.059 162.838 227.642 162.585C227.47 162.609 227.303 162.656 227.144 162.723C226.703 162.887 226.278 163.093 225.876 163.338C225.279 163.706 224.736 164.155 224.261 164.671C224.133 164.815 223.984 164.959 223.868 164.915C223.751 164.87 223.68 164.66 223.668 164.466C223.63 164.039 223.665 163.609 223.774 163.194C223.879 162.78 224.053 162.387 224.288 162.032L224.598 161.572L224.144 161.893L222.451 163.083C222.351 163.172 222.229 163.231 222.097 163.255C221.986 163.255 221.92 163.166 221.925 163.044C221.968 162.804 222.052 162.574 222.174 162.364L222.639 161.368C222.701 161.25 222.747 161.126 222.778 160.997Z" fill="#455A64"/>
<path d="M212.208 147.545C212.43 147.718 212.603 147.946 212.713 148.205C212.822 148.465 212.863 148.748 212.833 149.028C212.816 149.231 212.759 149.429 212.664 149.61C212.569 149.79 212.438 149.95 212.28 150.079C212.129 150.21 211.94 150.289 211.74 150.304C211.541 150.319 211.342 150.269 211.173 150.162C211.01 150.013 210.893 149.819 210.838 149.605C210.783 149.391 210.792 149.165 210.863 148.956C211.009 148.519 211.24 148.117 211.544 147.771C211.615 147.667 211.705 147.577 211.81 147.506C211.859 147.472 211.918 147.454 211.978 147.454C212.039 147.454 212.098 147.472 212.147 147.506" fill="#FF9A6C"/>
<path d="M213.791 149.852C213.791 149.703 212.812 149.714 212.131 148.862C211.45 148.009 211.522 146.941 211.384 146.936C211.246 146.93 211.196 147.174 211.185 147.628C211.178 148.21 211.374 148.777 211.738 149.232C212.088 149.665 212.595 149.942 213.149 150.002C213.553 150.035 213.797 149.924 213.791 149.852Z" fill="#263238"/>
<path d="M197.743 146.062C197.743 146.062 186.3 142.592 180.562 142.592C174.823 142.592 165.206 144.446 165.206 144.446L149.158 143.184L121.789 142.05L96.0912 142.603L96.39 168.611L191.358 167.056C191.358 167.056 202.53 165.833 202.53 160.239L197.743 146.062Z" fill="#5C4A6D"/>
<path d="M107.031 165.485C107.502 165.667 113.943 160.587 115.985 160.405C118.027 160.222 127.771 160.222 127.771 160.222V166.392C127.771 166.392 124.628 168.938 122.741 168.572L117.401 167.399L115.741 166.127C115.741 166.127 111.513 168.135 110.241 168.135C108.968 168.135 109.134 167.2 109.134 167.2C109.134 167.2 108.027 168.202 107.341 167.936C106.655 167.67 107.053 165.861 107.053 165.861" fill="#FFBF9D"/>
<path d="M175.803 155.021L155.301 159.337L127.771 160.222V166.392L156.059 167.305L176.926 166.392L175.803 155.021Z" fill="#FFBF9D"/>
<path d="M45.6965 161.633C44.8701 162.281 44.0847 162.98 43.3447 163.725C42.5964 164.479 41.5793 164.905 40.517 164.909C39.6119 164.781 38.7882 164.316 38.2095 163.609C37.6064 162.939 37.1471 162.148 36.5992 161.428C34.9957 159.371 33.1799 157.489 31.1818 155.812C28.1605 153.134 26.1352 150.959 26.1684 146.919C26.1408 146.683 26.1689 146.443 26.2506 146.219C26.3323 145.995 26.4652 145.793 26.6388 145.63C27.2253 145.221 28.0056 145.713 28.5645 146.183C31.619 148.696 34.2696 149.941 38.0546 151.081C39.9803 151.662 47.4617 153.521 50.7818 153.194L51.9273 161.943C51.9273 161.943 46.5708 161.052 45.6965 161.633Z" fill="#FFBF9D"/>
<path d="M196.581 164.726L196.498 164.771L196.249 164.892L195.834 165.08C195.668 165.141 195.469 165.191 195.242 165.263C193.937 165.612 192.604 165.849 191.258 165.971C186.537 166.411 181.794 166.581 177.053 166.48H176.937V166.364C176.721 164.295 176.489 162.103 176.251 159.818C176.129 158.671 176.008 157.507 175.886 156.326L175.703 154.528C175.669 154.21 175.688 153.888 175.759 153.576C175.794 153.408 175.865 153.249 175.966 153.11C176.067 152.97 176.196 152.854 176.345 152.768C176.906 152.549 177.515 152.481 178.11 152.569L179.804 152.619L183.124 152.729L189.393 152.929C191.38 153.017 193.306 152.962 195.065 153.399C196.825 153.836 198.352 154.816 199.049 156.221C199.658 157.468 199.917 158.856 199.796 160.239C199.688 161.279 199.287 162.267 198.64 163.088C198.227 163.598 197.736 164.039 197.185 164.394C196.996 164.51 196.853 164.599 196.747 164.649L196.592 164.726C196.592 164.726 196.792 164.599 197.146 164.344C197.677 163.977 198.149 163.531 198.546 163.022C199.171 162.211 199.554 161.241 199.653 160.222C199.751 158.875 199.487 157.526 198.889 156.315C198.208 154.982 196.72 154.03 195.015 153.631C193.311 153.233 191.391 153.277 189.393 153.194L183.124 153.012L179.804 152.907L178.105 152.857C177.563 152.777 177.01 152.832 176.494 153.017C176.002 153.283 175.941 153.936 175.996 154.506C176.052 155.076 176.118 155.701 176.179 156.293C176.301 157.477 176.419 158.643 176.533 159.79C176.771 162.07 176.993 164.267 177.203 166.337L177.076 166.215C181.805 166.336 186.538 166.201 191.253 165.811C192.595 165.707 193.928 165.497 195.237 165.18C195.458 165.119 195.663 165.075 195.834 165.02L196.249 164.848L196.504 164.754L196.581 164.726Z" fill="#263238"/>
<path d="M157.735 156.343C157.669 156.293 159.23 154.013 161.222 151.246C163.214 148.48 164.874 146.266 164.94 146.322C165.007 146.377 163.446 148.646 161.454 151.412C159.462 154.179 157.802 156.387 157.735 156.343Z" fill="#263238"/>
<path d="M155.206 156.835C155.123 156.835 155.599 155.131 155.848 152.995C156.097 150.859 156.053 149.122 156.142 149.122C156.237 149.496 156.278 149.881 156.263 150.267C156.29 151.191 156.248 152.116 156.136 153.034C156.019 153.954 155.834 154.864 155.583 155.756C155.515 156.134 155.388 156.498 155.206 156.835Z" fill="#263238"/>
<path d="M220.691 184.055H117.822V239.463H220.691V184.055Z" fill="#E0E0E0"/>
<path opacity="0.3" d="M117.822 184.055V193.064C117.822 193.064 220.691 191.819 220.691 193.064V184.055H117.822Z" fill="black"/>
<path d="M16.3797 163.587V195.421H40.2406C43.4687 195.424 46.659 194.727 49.5924 193.379L64.0959 186.739C67.9446 184.973 72.1291 184.057 76.3639 184.055H254.9V163.581L16.3797 163.587Z" fill="#E0E0E0"/>
<path d="M16.3797 163.587L254.878 163.443H255.022V184.199H248.165H109.328H80.5528H77.1663C76.0595 184.199 74.9528 184.199 73.8461 184.31C71.6847 184.5 69.5507 184.927 67.4825 185.583C65.4926 186.268 63.5482 187.08 61.6611 188.012L56.1275 190.552L50.771 193.009C49.0508 193.847 47.2407 194.488 45.3757 194.918C43.5983 195.331 41.7776 195.53 39.9528 195.51H34.7512H16.3797H16.3133V195.438C16.352 174.77 16.3797 164.09 16.3797 163.603C16.3797 164.09 16.3797 174.77 16.4461 195.438L16.3797 195.371H34.7512H39.9584C41.7687 195.388 43.5744 195.187 45.337 194.774C47.1702 194.33 48.9469 193.678 50.6327 192.832L55.9892 190.375L61.5228 187.824C63.4167 186.887 65.3685 186.072 67.3663 185.383C69.4482 184.719 71.5972 184.286 73.7742 184.094C74.8809 183.994 75.9876 183.972 77.0943 183.978H80.4809H109.256H248.094H254.828L254.684 184.122V163.647L254.828 163.791L16.3797 163.587Z" fill="#263238"/>
<path d="M243.423 169.447H27.74C25.1392 169.447 23.0309 171.555 23.0309 174.156V174.798C23.0309 177.398 25.1392 179.507 27.74 179.507H243.423C246.024 179.507 248.132 177.398 248.132 174.798V174.156C248.132 171.555 246.024 169.447 243.423 169.447Z" fill="#FAFAFA"/>
<path d="M243.429 179.507H243.727C243.852 179.5 243.976 179.485 244.098 179.462C244.269 179.442 244.437 179.406 244.602 179.357C245.076 179.237 245.526 179.039 245.935 178.771C246.508 178.409 246.993 177.925 247.357 177.354C247.821 176.631 248.076 175.794 248.093 174.936C248.117 174.441 248.096 173.945 248.032 173.453C247.951 172.921 247.777 172.408 247.518 171.937C246.931 170.874 245.955 170.081 244.795 169.723C244.154 169.548 243.489 169.479 242.825 169.519H240.712L191.18 169.563L27.7676 169.607C26.7942 169.605 25.8459 169.916 25.0617 170.492C24.2791 171.068 23.6981 171.875 23.4016 172.8C23.2653 173.26 23.1945 173.737 23.1914 174.217C23.1711 174.703 23.1989 175.191 23.2744 175.672C23.4572 176.616 23.9332 177.479 24.6345 178.138C25.3358 178.797 26.2269 179.217 27.1811 179.341C27.6633 179.379 28.1473 179.392 28.6309 179.379H58.8997H102.289L175.753 179.407L225.284 179.457H238.747L225.284 179.485L175.753 179.529L102.289 179.562H28.6143C28.1177 179.575 27.6207 179.56 27.1258 179.518C26.1105 179.389 25.162 178.943 24.4163 178.242C23.6707 177.541 23.1663 176.622 22.9756 175.617C22.8939 175.119 22.8642 174.615 22.887 174.111C22.8888 173.602 22.9633 173.095 23.1084 172.606C23.4483 171.653 24.0745 170.828 24.9012 170.243C25.7359 169.632 26.7439 169.302 27.7787 169.303L191.191 169.341L240.723 169.391H242.853C243.528 169.353 244.205 169.426 244.856 169.607C246.038 169.976 247.03 170.79 247.623 171.876C247.883 172.357 248.057 172.879 248.138 173.42C248.199 173.915 248.218 174.415 248.193 174.914C248.171 175.692 247.958 176.452 247.572 177.128C247.186 177.804 246.639 178.374 245.98 178.787C245.564 179.048 245.108 179.235 244.629 179.341C244.463 179.389 244.293 179.422 244.12 179.44C243.998 179.463 243.874 179.474 243.749 179.473L243.429 179.507Z" fill="#263238"/>
</svg>
