<svg width="185" height="582" viewBox="0 0 185 582" fill="none" xmlns="http://www.w3.org/2000/svg">
<path d="M79.5938 118.163C79.5938 118.163 80.7944 122.634 82.5766 128.886C84.1899 134.501 86.3286 141.6 88.3359 148.17C91.5439 158.341 94.7518 167.348 96.3089 168.132C98.0478 168.791 99.8208 169.328 101.618 169.742C114.863 173.196 155.103 178.96 155.103 178.96L156.06 168.005C156.06 168.005 107.434 150.755 105.408 147.767C104.807 146.856 103.813 140.986 102.368 133.103C100.924 125.22 98.9353 115.006 96.4215 105.978C93.3261 94.8315 89.3677 85.2743 84.4151 83.134L81.4322 104.707L79.5938 118.163Z" fill="#E4897B"/>
<path opacity="0.2" d="M79.5938 118.163C79.5938 118.163 80.7944 122.634 82.5766 128.886C84.1899 134.501 86.3286 141.6 88.3359 148.17C93.6075 145.288 98.8228 138.549 102.406 133.103C100.924 125.092 98.9728 115.005 96.459 105.978L81.451 104.707L79.5938 118.163Z" fill="black"/>
<path d="M77.3058 91.3562L79.0693 104.495L81.1891 120.452L95.1466 115.302L103.27 112.314C103.27 112.314 95.2967 82.8797 84.5097 83.134L77.3058 91.3562Z" fill="#5C4A6D"/>
<path opacity="0.2" d="M79.0692 104.495L81.189 120.452L95.1465 115.302C93.6368 109.721 91.1699 104.529 87.8863 100.023C86.1858 99.5605 84.3973 99.7485 82.8016 100.558C81.2058 101.367 79.893 102.752 79.0692 104.495Z" fill="black"/>
<path d="M141.333 164.19L156.059 168.005C157.965 166.794 159.8 165.449 161.556 163.978C163.995 161.859 184.537 159.253 184.537 159.253C184.537 159.253 184.537 177.265 182.661 179.172C180.785 181.079 165.083 184.661 162.738 185.53C160.393 186.398 155.14 178.939 155.14 178.939L138.763 175.549L141.333 164.19Z" fill="#E4897B"/>
<path d="M25.3408 562.753H7.93156C7.64629 562.747 7.36803 562.853 7.14522 563.055C6.92242 563.256 6.76916 563.539 6.71215 563.855L3.8794 578.265C3.76262 578.886 3.86896 579.534 4.17501 580.067C4.48107 580.599 4.96179 580.972 5.51151 581.105C5.66723 581.127 5.82479 581.127 5.98051 581.105C11.6085 580.999 15.7169 580.596 22.8645 580.596C27.2168 580.596 40.3676 581.105 46.3896 581.105C52.4115 581.105 53.1807 574.408 50.7231 573.773C39.6735 571.06 31.3628 567.288 27.8171 563.707C27.1345 563.034 26.2451 562.692 25.3408 562.753Z" fill="#5C4A6D"/>
<path d="M99.1994 562.223H81.7901C81.504 562.226 81.2273 562.338 81.0056 562.543C80.7839 562.747 80.6305 563.03 80.5707 563.346L77.7379 577.756C77.6312 578.376 77.7417 579.019 78.0462 579.549C78.3506 580.078 78.8253 580.454 79.37 580.596C79.5259 580.616 79.6832 580.616 79.839 580.596C85.467 580.49 89.5755 580.109 96.723 580.109C101.094 580.109 114.245 580.617 120.248 580.617C126.251 580.617 127.058 573.9 124.6 573.285C113.551 570.573 105.221 566.801 101.694 563.219C101.011 562.53 100.115 562.172 99.1994 562.223Z" fill="#5C4A6D"/>
<path d="M16.1114 198.117H92.1832C99.4245 242.618 122.068 423.93 105.822 564.724H80.0642C80.0642 564.724 82.4467 350.948 59.8034 281.886C57.177 318.843 30.5941 564.47 30.5941 564.47H4.33008C4.33008 564.47 8.25093 472.076 12.1718 384.79C14.5918 329.841 15.9988 209.391 16.1114 198.117Z" fill="#23162F"/>
<path opacity="0.6" d="M16.1114 198.117H92.1832C99.4245 242.618 122.068 423.93 105.822 564.724H80.0642C80.0642 564.724 82.4467 350.948 59.8034 281.886C57.177 318.843 30.5941 564.47 30.5941 564.47H4.33008C4.33008 564.47 8.25093 472.076 12.1718 384.79C14.5918 329.841 15.9988 209.391 16.1114 198.117Z" fill="white"/>
<path opacity="0.2" d="M59.8026 281.907C63.5506 294.006 66.3933 306.44 68.3009 319.076C70.4208 286.188 61.9225 251.265 61.9225 251.265L59.8026 281.907Z" fill="black"/>
<path d="M92.8207 199.134H82.3338V208.522L93.7962 208.374L92.8207 199.134Z" fill="black"/>
<path d="M79.5942 199.134H43.5937V209.052L79.5942 208.564V199.134Z" fill="black"/>
<path d="M16.2424 199.134V209.433L40.8555 209.094V199.134H16.2424Z" fill="black"/>
<path d="M2.73475 97.2261C2.73617 97.7405 2.79286 98.2528 2.90358 98.7518C4.10422 104.749 5.81138 113.586 7.59358 124.181C8.34398 128.631 9.11315 133.357 9.86355 138.316C11.0454 146.135 12.1898 154.463 13.184 163.003C14.5535 174.659 15.6229 186.674 16.0919 198.181H92.1824C92.9891 170.272 93.7583 120.791 84.4533 83.2187C84.4533 83.2187 43.1813 81.0996 8.75669 88.6225C7.01321 89.018 5.45076 90.1001 4.34785 91.6758C3.24494 93.2516 2.67326 95.2185 2.73475 97.2261Z" fill="#5C4A6D"/>
<path d="M23.4267 86.3338C31.8549 92.7674 42.0045 95.6823 52.1295 94.5772C65.2615 92.7124 67.5127 83.3247 67.5127 83.3247C67.5127 83.3247 58.5642 83.2187 55.7502 79.0865C54.8472 76.9501 54.5901 74.5379 55.0185 72.2206C55.5408 67.7938 56.4007 63.4263 57.5887 59.1668C57.8513 58.2132 58.0201 57.641 58.0201 57.641L35.7895 47.1726C35.7895 47.1726 37.7593 70.1438 35.9209 76.8402C34.0824 83.5366 23.4267 86.3338 23.4267 86.3338Z" fill="#E4897B"/>
<path opacity="0.2" d="M37.9277 64.1256C37.9277 64.1256 43.5557 79.7011 55.0181 72.1146C55.5403 67.6879 56.4002 63.3204 57.5882 59.0609L56.2375 58.4887L37.9277 64.1256Z" fill="black"/>
<path d="M45.4696 3.66721C45.4696 3.66721 25.9404 5.51084 23.6517 16.721C21.363 27.9311 48.0397 37.3823 53.5364 27.3165C59.0331 17.2507 51.2289 4.51485 45.4696 3.66721Z" fill="#5C4A6D"/>
<path d="M65.7493 9.961C65.7493 9.961 72.7468 30.4104 64.3986 41.0484C56.0504 51.6864 48.3213 12.2708 48.3213 12.2708L65.7493 9.961Z" fill="#5C4A6D"/>
<path d="M38.81 65.1003C41.5771 68.0668 45.1301 69.9244 48.9228 70.3876C52.7156 70.8509 56.538 69.8941 59.8025 67.6644C64.0813 64.8514 67.2533 60.3062 68.6759 54.9498C68.8635 54.2081 69.0324 53.4664 69.1637 52.6823C71.5275 38.5266 68.6572 15.4918 54.8686 10.0457C51.8268 8.82101 48.5579 8.49753 45.374 9.10612C42.19 9.71471 39.1973 11.2351 36.6816 13.522C34.1659 15.809 32.2112 18.7863 31.0041 22.1695C29.797 25.5528 29.3778 29.2291 29.7865 32.8474C31.2685 48.3593 31.4936 57.5351 38.81 65.1003Z" fill="#E4897B"/>
<path d="M50.8916 36.0473C50.8916 37.3187 51.5857 38.3147 52.3173 38.2723C53.049 38.2299 53.593 37.1492 53.5555 35.8989C53.518 34.6486 52.8614 33.6315 52.1298 33.6739C51.3981 33.7162 50.8541 34.7758 50.8916 36.0473Z" fill="#5C4A6D"/>
<path d="M63.5546 35.3479C63.5546 36.6194 64.2675 37.6154 64.9991 37.573C65.7308 37.5306 66.2748 36.4499 66.2185 35.1996C66.1622 33.9493 65.5244 32.9322 64.7928 33.0805C64.0611 33.2288 63.5546 34.1401 63.5546 35.3479Z" fill="#5C4A6D"/>
<path d="M59.5773 36.1956C61.0769 40.0165 63.0406 43.5826 65.4116 46.7912C64.6643 47.451 63.8 47.9213 62.8774 48.1699C61.9547 48.4186 60.9955 48.4398 60.065 48.2322L59.5773 36.1956Z" fill="#DE5753"/>
<path d="M68.0193 28.9695C67.9132 29.0363 67.7937 29.0713 67.6722 29.0713C67.5507 29.0713 67.4313 29.0363 67.3251 28.9695C66.6138 28.495 65.8141 28.2153 64.9899 28.1527C64.1657 28.0902 63.34 28.2465 62.5789 28.6092C62.4245 28.6985 62.2452 28.7151 62.08 28.6556C61.9148 28.596 61.7772 28.4651 61.6971 28.2913C61.6167 28.1195 61.5991 27.919 61.6482 27.7327C61.6973 27.5464 61.8092 27.3894 61.9598 27.2953C62.9142 26.8108 63.9578 26.5925 65.0026 26.6589C66.0473 26.7253 67.0627 27.0744 67.963 27.6768C68.1168 27.7672 68.2327 27.9226 68.2855 28.1092C68.3382 28.2958 68.3234 28.4984 68.2444 28.6728L68.0193 28.9695Z" fill="#5C4A6D"/>
<path d="M48.1332 30.4528C47.9998 30.4532 47.8692 30.409 47.758 30.3257C47.6377 30.187 47.5703 30.0006 47.5703 29.8065C47.5703 29.6123 47.6377 29.4259 47.758 29.2873C48.5067 28.4588 49.4206 27.8454 50.4228 27.4988C51.4251 27.1521 52.4863 27.0824 53.5173 27.2953C53.6023 27.3151 53.6828 27.3543 53.7538 27.4104C53.8249 27.4665 53.8852 27.5384 53.9308 27.6218C53.9765 27.7051 54.0066 27.798 54.0194 27.8949C54.0321 27.9918 54.0273 28.0906 54.0051 28.1854C53.9569 28.3707 53.8498 28.5294 53.7044 28.6311C53.559 28.7328 53.3855 28.7703 53.2172 28.7363C52.3987 28.5893 51.5611 28.6624 50.7722 28.9496C49.9834 29.2368 49.2657 29.73 48.6773 30.3893C48.596 30.4434 48.5052 30.4771 48.4114 30.4881C48.3175 30.499 48.2226 30.487 48.1332 30.4528Z" fill="#5C4A6D"/>
<path d="M39.0548 12.8642L40.3868 19.6241C39.4126 20.2918 38.6951 21.3474 38.3756 22.5829C38.0562 23.8185 38.1579 25.1443 38.6609 26.2993C41.1184 31.8302 38.9798 41.1332 35.3779 45.0535C35.3779 45.0535 35.0589 42.5742 33.2392 43.3794C31.4195 44.1847 33.0516 57.0901 37.2164 62.8753C37.2164 62.8753 31.2507 57.8741 26.9734 44.6085C23.0338 32.3176 21.7769 21.8492 23.6529 16.721L39.0548 12.8642Z" fill="#5C4A6D"/>
<path d="M59.3711 52.2373C58.7482 54.0882 58.2405 55.9859 57.8515 57.9166H56.9323C52.7488 57.5775 50.9103 55.7974 50.1411 54.0598C49.7845 53.1767 49.6173 52.2111 49.6534 51.2413C49.6607 50.6882 49.7365 50.139 49.8785 49.6096C52.3772 51.0977 55.1263 51.9716 57.9453 52.1738C58.827 52.2161 59.3711 52.2373 59.3711 52.2373Z" fill="#5C4A6D"/>
<path d="M57.9267 52.1102L57.439 53.7631C53.5182 53.4452 50.7792 52.6187 49.6348 51.1777C49.6422 50.6246 49.7179 50.0754 49.8599 49.546C52.3586 51.0341 55.1078 51.908 57.9267 52.1102Z" fill="white"/>
<path d="M56.9325 57.7682C52.749 57.4291 50.9105 55.6491 50.1414 53.9114C51.7286 54.0809 53.2775 54.5614 54.7188 55.3312C55.6649 55.8608 56.4395 56.7134 56.9325 57.7682Z" fill="#DE5753"/>
<path d="M53.7995 12.1648C47.2335 11.9317 45.7515 16.4031 45.4701 21.7644C45.1887 27.1258 43.1626 27.147 43.1626 27.147V24.2862C43.1626 24.2862 40.9302 29.3721 37.2157 30.4952C33.5012 31.6183 28.2296 43.888 30.6872 53.9962C30.6872 53.9962 24.7028 53.6147 21.5886 49.546C18.4745 45.4773 19.7126 37.573 19.7126 37.573C18.6597 40.0208 18.2124 42.7447 18.4182 45.4561C17.0376 40.9971 16.7714 36.1946 17.649 31.5759C18.9622 23.0995 14.8913 19.5182 18.7746 12.1648C22.6579 4.81151 37.6847 -0.0200669 45.3951 1.86594C45.3951 1.86594 50.2539 -3.79207 55.3566 5.00226C55.3566 5.00226 56.4822 0.764018 62.3916 2.07787C68.301 3.39172 68.301 11.0841 72.0155 16.3183C75.73 21.5525 76.5742 29.923 69.0139 32.9746C69.0139 32.9746 64.9617 18.8613 61.5099 14.9621C58.0581 11.0629 55.3378 12.843 55.3378 12.843L53.7995 12.1648Z" fill="#23162F"/>
<path d="M24.3087 45.9435C25.9898 49.3827 28.8099 51.9281 32.1504 53.0214C36.5965 54.4412 38.8102 49.9487 37.6096 45.223C36.5027 40.9848 32.8633 35.0937 28.3984 35.8142C27.4293 35.9763 26.5115 36.4097 25.7286 37.075C24.9457 37.7403 24.3226 38.6163 23.9161 39.6232C23.5096 40.63 23.3325 41.7358 23.4011 42.8397C23.4697 43.9437 23.7817 45.0107 24.3087 45.9435Z" fill="#E4897B"/>
<path d="M68.4506 209.921H59.6709C59.3187 209.921 58.9698 209.842 58.6444 209.69C58.3189 209.538 58.0231 209.314 57.774 209.033C57.5249 208.752 57.3273 208.418 57.1925 208.05C57.0577 207.682 56.9883 207.288 56.9883 206.89V201.126C56.9883 200.321 57.2703 199.548 57.7729 198.976C58.2754 198.404 58.9577 198.08 59.6709 198.075H68.4506C69.1656 198.08 69.8499 198.404 70.3554 198.975C70.861 199.546 71.1472 200.319 71.1521 201.126V206.89C71.1471 207.696 70.8603 208.467 70.3542 209.034C69.8482 209.602 69.1639 209.921 68.4506 209.921ZM59.6709 200.194C59.4553 200.199 59.2501 200.3 59.0994 200.474C58.9486 200.649 58.8642 200.883 58.8643 201.126V206.89C58.8643 207.132 58.9493 207.364 59.1006 207.535C59.2518 207.705 59.457 207.801 59.6709 207.801H68.4506C68.6664 207.802 68.8735 207.706 69.0278 207.536C69.1821 207.366 69.2712 207.134 69.2761 206.89V201.126C69.2761 200.879 69.1891 200.642 69.0343 200.467C68.8795 200.292 68.6696 200.194 68.4506 200.194H59.6709Z" fill="white"/>
<path d="M63.4419 204.898H59.6899C59.4411 204.898 59.2026 204.787 59.0266 204.588C58.8507 204.389 58.7519 204.12 58.7519 203.839C58.7519 203.558 58.8507 203.288 59.0266 203.09C59.2026 202.891 59.4411 202.779 59.6899 202.779H63.4419C63.6907 202.779 63.9293 202.891 64.1052 203.09C64.2811 203.288 64.3799 203.558 64.3799 203.839C64.3799 204.12 64.2811 204.389 64.1052 204.588C63.9293 204.787 63.6907 204.898 63.4419 204.898Z" fill="white"/>
<path opacity="0.2" d="M2.73438 97.2261C2.7358 97.7405 2.79249 98.2528 2.90321 98.7518C4.10385 104.749 5.81101 113.586 7.59321 124.181C8.34361 128.631 9.11278 133.357 9.86318 138.316C16.4607 141.346 23.6982 142.134 30.6868 140.583L2.73438 97.2261Z" fill="black"/>
<path d="M51.4728 139.227C51.4371 138.376 51.7013 137.544 52.2076 136.912C52.7139 136.281 53.421 135.901 54.1743 135.858C54.4481 135.815 54.7259 135.815 54.9997 135.858C54.9426 135.536 54.905 135.21 54.8871 134.883C54.8106 133.08 55.3697 131.316 56.4421 129.977C57.5146 128.639 59.0129 127.835 60.6089 127.741C60.9769 127.699 61.3478 127.699 61.7158 127.741C62.2627 126.61 63.1199 125.71 64.1585 125.176C65.1971 124.642 66.3611 124.503 67.4756 124.78C68.5901 125.057 69.5949 125.735 70.339 126.712C71.0831 127.69 71.5264 128.913 71.6023 130.2H71.6961C72.9518 130.186 74.1632 130.723 75.0764 131.697C75.9895 132.671 76.5334 134.006 76.5941 135.423C76.6547 136.84 76.2274 138.228 75.4017 139.297C74.576 140.365 73.4161 141.032 72.1651 141.155L54.3806 142.151C53.6581 142.171 52.9559 141.88 52.4161 141.337C51.8763 140.794 51.5392 140.04 51.4728 139.227Z" fill="#EBEBEB"/>
<path d="M13.6908 138.295C13.6551 137.444 13.9193 136.611 14.4256 135.98C14.9319 135.348 15.639 134.969 16.3923 134.925C16.6661 134.882 16.9439 134.882 17.2177 134.925C17.1606 134.603 17.123 134.278 17.1052 133.95C17.0279 132.164 17.5742 130.416 18.6267 129.08C19.6792 127.744 21.1538 126.929 22.7332 126.809C23.1074 126.766 23.4845 126.766 23.8587 126.809C24.4006 125.673 25.2557 124.767 26.2944 124.229C27.3331 123.691 28.4987 123.551 29.6144 123.829C30.7302 124.107 31.7353 124.788 32.4773 125.769C33.2194 126.751 33.658 127.979 33.7265 129.267C34.9822 129.254 36.1936 129.791 37.1068 130.764C38.0199 131.738 38.5638 133.073 38.6245 134.49C38.6851 135.907 38.2578 137.295 37.4321 138.364C36.6064 139.433 35.4465 140.099 34.1955 140.223L16.411 141.219C15.721 141.186 15.0649 140.872 14.5646 140.334C14.0643 139.796 13.7538 139.071 13.6908 138.295Z" fill="#EBEBEB"/>
<path d="M70.9084 172.518C70.9072 171.981 71.0868 171.463 71.4107 171.07C71.7346 170.676 72.1786 170.437 72.6531 170.399C72.8276 170.377 73.0038 170.377 73.1784 170.399C73.1599 170.188 73.1599 169.975 73.1784 169.763C73.1532 169.182 73.2307 168.601 73.4064 168.054C73.582 167.506 73.8523 167.004 74.2016 166.576C74.5508 166.148 74.9719 165.803 75.4404 165.561C75.9089 165.318 76.4154 165.184 76.9304 165.165C77.1671 165.133 77.4065 165.133 77.6432 165.165C77.9238 164.588 78.329 164.102 78.821 163.75C79.3131 163.398 79.8759 163.192 80.4572 163.152C81.3489 163.099 82.2228 163.446 82.89 164.116C83.5571 164.787 83.9636 165.727 84.0216 166.733C84.4459 166.68 84.8751 166.726 85.2831 166.868C85.6911 167.009 86.0691 167.244 86.3941 167.556C86.7191 167.869 86.9841 168.253 87.1729 168.685C87.3617 169.118 87.4703 169.589 87.4921 170.07C87.5138 170.552 87.4483 171.033 87.2994 171.485C87.1506 171.937 86.9216 172.35 86.6265 172.698C86.3314 173.046 85.9764 173.323 85.5833 173.51C85.1902 173.698 84.7673 173.793 84.3406 173.79L72.8594 174.447C72.377 174.471 71.905 174.283 71.5416 173.924C71.1782 173.565 70.9514 173.061 70.9084 172.518Z" fill="#EBEBEB"/>
<path d="M21.4756 183.559C21.4744 183.022 21.6539 182.504 21.9778 182.11C22.3017 181.717 22.7458 181.477 23.2203 181.44C23.3933 181.397 23.5725 181.397 23.7455 181.44C23.7455 181.228 23.7455 181.016 23.7455 180.804C23.7178 180.222 23.7935 179.64 23.9682 179.091C24.1429 178.543 24.4131 178.039 24.7628 177.611C25.1125 177.182 25.5347 176.837 26.0043 176.596C26.474 176.354 26.9817 176.222 27.4975 176.205C27.7411 176.184 27.9857 176.184 28.2292 176.205C28.5835 175.481 29.136 174.905 29.8039 174.564C30.4718 174.224 31.2193 174.136 31.9349 174.315C32.6504 174.494 33.2956 174.929 33.7739 175.557C34.2522 176.184 34.5381 176.969 34.5888 177.795C35.013 177.742 35.4423 177.788 35.8503 177.93C36.2582 178.071 36.6363 178.305 36.9613 178.618C37.2863 178.93 37.5513 179.315 37.7401 179.747C37.9289 180.179 38.0375 180.651 38.0593 181.132C38.081 181.614 38.0154 182.095 37.8666 182.547C37.7178 182.999 37.4888 183.411 37.1937 183.76C36.8986 184.108 36.5436 184.384 36.1505 184.572C35.7574 184.76 35.3345 184.855 34.9077 184.851L23.4266 185.487C22.9442 185.511 22.4722 185.324 22.1088 184.965C21.7454 184.606 21.5186 184.102 21.4756 183.559Z" fill="#EBEBEB"/>
<path d="M41.9806 113.882C41.9794 113.345 42.159 112.827 42.4829 112.434C42.8068 112.041 43.2508 111.801 43.7253 111.763C43.8998 111.741 44.076 111.741 44.2506 111.763C44.2321 111.552 44.2321 111.339 44.2506 111.127C44.2254 110.546 44.3029 109.965 44.4786 109.418C44.6543 108.871 44.9246 108.368 45.2738 107.94C45.623 107.512 46.0441 107.167 46.5126 106.925C46.9811 106.683 47.4876 106.548 48.0026 106.529C48.2398 106.507 48.4782 106.507 48.7154 106.529C48.9961 105.953 49.4013 105.466 49.8933 105.114C50.3853 104.762 50.9481 104.556 51.5294 104.516C52.4241 104.464 53.3008 104.813 53.9685 105.488C54.6361 106.163 55.0406 107.108 55.0939 108.118C55.9237 108.078 56.7341 108.409 57.3489 109.04C57.9637 109.671 58.3331 110.551 58.3769 111.488C58.3971 111.95 58.3364 112.412 58.1982 112.847C58.0601 113.283 57.8473 113.683 57.572 114.026C57.2966 114.368 56.9642 114.646 56.5937 114.843C56.2232 115.041 55.8219 115.153 55.4128 115.175L43.9316 115.832C43.4462 115.856 42.9716 115.666 42.6077 115.302C42.2438 114.938 42.019 114.429 41.9806 113.882Z" fill="#EBEBEB"/>
<path d="M71.3398 94.8315C71.3387 94.2943 71.5182 93.7766 71.8421 93.3832C72.166 92.9898 72.6101 92.75 73.0845 92.7124C73.2577 92.6706 73.4367 92.6706 73.6098 92.7124C73.6098 92.5005 73.6098 92.2886 73.6098 92.0767C73.5872 91.496 73.6664 90.916 73.843 90.37C74.0196 89.8241 74.2901 89.323 74.6388 88.8956C74.9875 88.4682 75.4077 88.123 75.875 87.8797C76.3423 87.6364 76.8476 87.5 77.3618 87.4782C77.5986 87.446 77.8379 87.446 78.0747 87.4782C78.4241 86.7449 78.9752 86.1599 79.6449 85.8117C80.3146 85.4635 81.0665 85.371 81.7868 85.5481C82.5072 85.7252 83.157 86.1623 83.638 86.7934C84.119 87.4245 84.4051 88.2153 84.4531 89.0463C85.251 89.0578 86.0149 89.4128 86.5891 90.0388C87.1632 90.6648 87.5042 91.5148 87.5425 92.4151C87.5808 93.3155 87.3135 94.1984 86.7952 94.8837C86.2768 95.5691 85.5465 96.0051 84.7532 96.103L73.2909 96.7387C72.8114 96.7631 72.3419 96.5789 71.979 96.2241C71.6161 95.8694 71.3873 95.371 71.3398 94.8315Z" fill="#EBEBEB"/>
<path d="M41.5681 160.63C41.5526 160.291 41.6562 159.958 41.8564 159.704C42.0565 159.45 42.3371 159.296 42.6374 159.274H42.9751C42.9649 159.14 42.9649 159.005 42.9751 158.871C42.9444 158.149 43.168 157.443 43.5968 156.907C44.0257 156.371 44.625 156.049 45.2638 156.01C45.4133 155.99 45.5645 155.99 45.714 156.01C45.8819 155.647 46.1316 155.34 46.4379 155.121C46.7442 154.901 47.0963 154.777 47.4587 154.76C48.0119 154.731 48.5532 154.947 48.9669 155.363C49.3806 155.779 49.6338 156.361 49.6724 156.985C49.9274 156.971 50.1823 157.014 50.4226 157.112C50.6628 157.209 50.8838 157.359 51.0728 157.553C51.2618 157.746 51.4152 157.98 51.5242 158.241C51.6331 158.502 51.6955 158.784 51.7078 159.072C51.7202 159.36 51.6821 159.648 51.5959 159.92C51.5097 160.191 51.3771 160.441 51.2055 160.654C51.0339 160.868 50.8267 161.041 50.5959 161.164C50.365 161.287 50.115 161.358 49.86 161.372L42.7312 161.774C42.4459 161.782 42.1685 161.668 41.9533 161.457C41.7381 161.245 41.6007 160.95 41.5681 160.63Z" fill="#EBEBEB"/>
<path d="M74.0044 115.726C73.9968 115.556 74.0189 115.386 74.0696 115.226C74.1202 115.066 74.1982 114.919 74.2993 114.793C74.4004 114.667 74.5225 114.565 74.6586 114.492C74.7947 114.419 74.9421 114.378 75.0924 114.37H75.4114C75.4012 114.236 75.4012 114.101 75.4114 113.967C75.3807 113.245 75.6042 112.539 76.0331 112.003C76.462 111.467 77.0613 111.145 77.7001 111.106H78.1503C78.3221 110.748 78.5732 110.447 78.879 110.231C79.1848 110.016 79.5349 109.894 79.895 109.877C80.4344 109.841 80.9654 110.041 81.3777 110.436C81.7899 110.83 82.0517 111.389 82.1087 111.996C82.3674 111.973 82.6275 112.01 82.8728 112.106C83.118 112.202 83.3429 112.354 83.5333 112.554C83.7238 112.753 83.8755 112.994 83.979 113.263C84.0826 113.532 84.1356 113.822 84.1348 114.115C84.1583 114.409 84.1272 114.705 84.0435 114.985C83.9598 115.265 83.8254 115.521 83.6488 115.739C83.4722 115.956 83.2573 116.13 83.0179 116.248C82.7786 116.366 82.52 116.426 82.2588 116.425L75.13 116.828C74.8568 116.826 74.5932 116.714 74.3867 116.512C74.1803 116.31 74.0447 116.031 74.0044 115.726Z" fill="#EBEBEB"/>
<path d="M54.6432 190.043C54.6356 189.873 54.6578 189.704 54.7084 189.544C54.759 189.383 54.8371 189.236 54.9382 189.11C55.0392 188.984 55.1613 188.882 55.2974 188.809C55.4335 188.737 55.581 188.695 55.7313 188.687H56.0502C56.04 188.553 56.04 188.418 56.0502 188.284C56.0325 187.927 56.078 187.57 56.184 187.233C56.2899 186.896 56.4542 186.587 56.6673 186.322C56.8804 186.058 57.1379 185.844 57.4249 185.694C57.7119 185.543 58.0227 185.458 58.3389 185.445C58.4885 185.424 58.6397 185.424 58.7892 185.445C58.9571 185.082 59.2067 184.775 59.513 184.555C59.8193 184.336 60.1714 184.211 60.5339 184.195C61.0882 184.16 61.6323 184.374 62.0471 184.791C62.4619 185.208 62.7137 185.794 62.7476 186.42C63.0062 186.396 63.2664 186.434 63.5116 186.529C63.7568 186.625 63.9818 186.778 64.1722 186.977C64.3626 187.176 64.5144 187.418 64.6179 187.687C64.7214 187.955 64.7744 188.246 64.7736 188.539C64.7971 188.833 64.766 189.129 64.6824 189.408C64.5987 189.688 64.4642 189.945 64.2876 190.162C64.111 190.379 63.8961 190.553 63.6568 190.671C63.4174 190.789 63.1588 190.85 62.8976 190.849L55.7688 191.251C55.4811 191.247 55.2055 191.12 54.9969 190.896C54.7883 190.672 54.6621 190.368 54.6432 190.043Z" fill="#EBEBEB"/>
<path d="M26.6356 106.211C26.6356 106.211 50.8172 133.908 56.0325 135.285C61.2478 136.663 98.9929 115.111 98.9929 115.111C98.9929 115.111 100.963 108.161 102.951 106.211C104.94 104.262 122.593 98.7094 124.638 100.638C126.683 102.566 127.452 115.472 124.638 121.003C121.824 126.533 102.951 129.076 102.951 129.076L100.475 126.533C100.475 126.533 59.0341 152.302 53.4624 152.599C47.8907 152.895 17.7246 124.499 17.7246 124.499L26.6356 106.211Z" fill="#E4897B"/>
<path d="M3.52324 89.8304C-8.98969 99.4088 15.8486 131.81 15.8486 131.81L35.4152 110.004C35.4152 110.004 14.0851 81.7565 3.52324 89.8304Z" fill="#5C4A6D"/>
<path d="M21.7764 115.387C21.5658 115.069 21.4717 114.671 21.5136 114.276C21.5556 113.882 21.7303 113.521 22.0016 113.268C22.1033 113.177 22.2173 113.105 22.3392 113.056C22.2357 112.946 22.1415 112.825 22.0578 112.696C21.8163 112.36 21.6362 111.974 21.528 111.559C21.4198 111.144 21.3856 110.709 21.4275 110.279C21.4694 109.85 21.5865 109.433 21.772 109.055C21.9575 108.677 22.2077 108.344 22.5081 108.076C22.6476 107.946 22.7985 107.833 22.9583 107.737C22.9114 107.128 23.037 106.519 23.3168 105.996C23.5967 105.473 24.0164 105.064 24.5153 104.828C25.0142 104.593 25.5666 104.542 26.0926 104.684C26.6186 104.826 27.0912 105.153 27.4419 105.618C27.9299 105.218 28.5354 105.046 29.1327 105.137C29.7301 105.228 30.2734 105.576 30.65 106.107C31.0266 106.639 31.2074 107.314 31.155 107.992C31.1026 108.671 30.8209 109.3 30.3685 109.75L23.6524 115.832C23.349 116.044 22.9849 116.117 22.6355 116.034C22.2862 115.951 21.9785 115.719 21.7764 115.387Z" fill="#EBEBEB"/>
</svg>
